<?xml version="1.0" encoding="UTF-8"?>
<svg id="Layer_1" xmlns="http://www.w3.org/2000/svg" version="1.1" viewBox="0 0 200 110"> 
  <!-- Optimized for n8n node display - scaled for better visibility -->
  <defs>
    <style>
      .st0 {
        fill: #003434;
      }
    </style>
  </defs>
  <g transform="translate(-43, -44)">
    <g>
      <path class="st0" d="M97.22,55.79c-.21-.02-.42-.02-.63-.02-2.86,0-5.35.96-7.03,2.1l-.1-.07v-1.44s-6.55,0-6.55,0v28.4s5.56.02,5.56.02h.98s0-21.17,0-21.17c1.51-1.14,3.45-1.97,5.73-1.97.5,0,1.01.02,1.46.13,3.23.75,4.39,3.43,4.39,6.26,0,6.03,0,16.74,0,16.74h6.52s0-17.91,0-17.91c0-3.64-1.05-6.56-3.28-8.41-1.97-1.63-4.43-2.56-7.07-2.67Z"/>
      <polygon class="st0" points="71.5 56.36 71.5 84.77 78.04 84.77 78.04 56.36 78.03 56.36 71.5 56.36"/>
      <path class="st0" d="M124.82,55.75c-7.4,0-13.87,5.88-13.87,14.89,0,1,.08,1.97.24,2.89.06.34.13.68.21,1.01.03.11.05.22.08.33.03.11.06.22.09.32.08.28.17.56.26.83,2.01,5.83,7.21,9.4,12.97,9.4.19,0,.39,0,.58-.01,4.49-.18,8.57-2.51,10.66-6.86.29-.59.54-1.23.74-1.9h-.74s-.4,0-.4,0c0,0-4.84,0-4.84,0-1.46,2.52-4.41,3.48-7.17,3-3.18-.56-5.11-2.98-5.71-6.06-.07-.36-.12-.73-.16-1.10h20.12c.11-.75.17-1.9.17-2.83,0-9.12-6.48-13.91-13.22-13.91ZM117.74,67.63c.83-4.27,3.92-6.23,7.02-6.23,3.04,0,6.53,1.96,7.03,6.23h-14.05Z"/>
      <path class="st0" d="M53.15,56.36c-2.6,0-4.77,0-6.8,0h-5.7s0,40.38,0,40.38h6.69s0-13.43,0-13.43l.11-.06c1.71,1.15,4.26,2.14,7.19,2.14,7.08,0,13.05-5.66,13.05-14.38,0-8.89-6.14-14.65-14.54-14.65ZM53.2,79.39c-2.32,0-4.31-.87-5.86-2.02v-15.17c1.72,0,3.65,0,5.58,0,5.03,0,8.02,3.45,8.02,8.47,0,4.97-2.93,8.72-7.74,8.72Z"/>
      <path class="st0" d="M208.21,55.75c-2.86,0-5.35.96-7.02,2.09l-.11-.06v-13.08s-6.54-.01-6.54-.01v40.06s5.57.01,5.57.01c1.98,0,4.1,0,6.65,0,8.21,0,14.21-6.26,14.21-14.95,0-8.52-5.84-14.06-12.75-14.06ZM206.53,79.06c-1.89,0-3.77,0-5.46,0v-15.46c1.51-1.13,3.46-1.98,5.73-1.98,4.70,0,7.56,3.67,7.56,8.52s-2.92,8.91-7.84,8.91Z"/>
      <path class="st0" d="M237.86,67.75c-3.95-.87-7.3-.81-7.3-3.46,0-1.96,1.84-2.83,4.65-2.83s6.59.92,9.84,2.89v-6.35c-2.81-1.56-6.65-2.25-9.84-2.25-6.38,0-11.19,3.12-11.24,9.06,0,5.14,3.46,7.04,8.54,8.19,4.05.92,7.46.81,7.46,3.64,0,2.14-1.89,3.06-4.86,3.06-2.92,0-6.97-.98-10.32-3.17v6.52c2.97,1.62,6.92,2.37,10.21,2.37,6.27,0,11.56-2.94,11.56-9.35,0-5.42-3.62-7.16-8.70-8.31Z"/>
      <path class="st0" d="M183.19,57.78l-.11.07c-4.14-2.75-8.55-1.99-8.55-1.99-7.74,1.07-11.56,8.14-11.97,13.25-.34,4.38.77,11.17,7.97,14.98,4.88,2.59,10.01.81,12.55-.81.04.02.07.05.11.07v1.44s6.55,0,6.55,0v-28.46s-6.54,0-6.54,0v1.44ZM183.19,77.54c-2.37,1.61-4.53,2.13-6.36,1.93-5.9-.63-6.71-5.91-6.87-7.21-.33-2.66-.05-7.55,3.78-9.67,4.84-2.67,9.45,1.01,9.45,1.01v13.94Z"/>
      <path class="st0" d="M157,77.98v-33.28s-6.52,0-6.52,0v33.49s0,.05,0,.05v.04s0,0,0,0c.02,6.03,4.21,6.5,5.49,6.5h5.41s0-5.69,0-5.69h-4.35"/>
    </g>
    <polygon class="st0" points="71.48 49.64 76.13 44.99 82.73 44.99 82.73 51.59 78.08 56.24 78.08 49.64 71.48 49.64"/>
  </g>
  <g transform="translate(-43, -44)">
    <path class="st0" d="M176.35,112.97c-1.1-.61-1.97-1.47-2.62-2.57-.65-1.1-.97-2.34-.97-3.71s.32-2.61.97-3.7c.65-1.09,1.52-1.95,2.62-2.56s2.31-.92,3.63-.92,2.53.31,3.63.92c1.1.61,1.97,1.47,2.6,2.56.63,1.09.95,2.33.95,3.7s-.32,2.61-.96,3.71c-.64,1.10-1.51,1.96-2.6,2.57s-2.3.92-3.62.92-2.53-.31-3.63-.92ZM182.67,109.65c.67-.75,1.01-1.73,1.01-2.96s-.34-2.23-1.01-2.97-1.57-1.11-2.69-1.11-2.04.37-2.71,1.10-1.01,1.73-1.01,2.98.34,2.23,1.01,2.97c.67.74,1.58,1.11,2.71,1.11s2.02-.37,2.69-1.12Z"/>
    <path class="st0" d="M202.02,113.75h-3.42l-5.72-8.66v8.66h-3.42v-14.04h3.42l5.72,8.7v-8.7h3.42v14.04Z"/>
    <path class="st0" d="M208.32,111.11h4.48v2.64h-7.9v-14.04h3.42v11.4Z"/>
    <path class="st0" d="M218.26,99.71v14.04h-3.42v-14.04h3.42Z"/>
    <path class="st0" d="M233.7,113.75h-3.42l-5.72-8.66v8.66h-3.42v-14.04h3.42l5.72,8.7v-8.7h3.42v14.04Z"/>
    <path class="st0" d="M240,102.45v2.84h4.58v2.64h-4.58v3.08h5.18v2.74h-8.6v-14.04h8.6v2.74h-5.18Z"/>
  </g>
</svg>